#!OML:ASF G:\ViconDB\ViconDB\414\test\team2\shane.ASF
:FULLY-SPECIFIED
:DEGREES
285
root 3.15429 16.8101 13.0119 -8.49276 2.31394 -5.79722
lowerback 6.65178 4.44212 6.40932
upperback 2.72183 6.30426 -0.657685
thorax -0.123215 3.22345 -4.63189
lowerneck -15.6035 -8.94217 -10.8393
upperneck 18.905 -13.1828 14.898
head 10.4003 -5.38751 5.1483
rclavicle 2.58917e-014 7.15625e-015
rhumerus -19.2373 18.0563 -93.6225
rradius 40.056
rwrist 25.994
rhand -31.7456 -16.7001
rfingers 7.12502
rthumb -5.00309 -46.621
lclavicle 2.58917e-014 7.15625e-015
lhumerus -49.872 -12.6627 86.0859
lradius 20.5278
lwrist -13.5849
lhand -35.1728 7.19781
lfingers 7.12502
lthumb -8.31156 37.0143
rfemur 30.046 -13.9476 23.146
rtibia 9.54166e-015
rfoot -13.6236 3.81439
rtoes -10.8635
lfemur -24.6551 9.90342 -9.52195
ltibia 34.7721
lfoot -30.3997 -16.423
ltoes -11.9132
286
root 3.15696 16.7838 13.1742 -8.34831 2.23168 -5.91288
lowerback 6.63137 4.55708 6.486
upperback 2.60043 6.46292 -0.787738
thorax -0.19367 3.29907 -4.81913
lowerneck -15.4362 -9.00656 -10.9747
upperneck 18.7931 -13.2995 15.1369
head 10.3767 -5.43818 5.2405
rclavicle 2.45996e-014 -2.22639e-014
rhumerus -19.1403 19.6628 -93.69
rradius 40.81
rwrist 24.8215
rhand -31.5704 -16.7759
rfingers 7.12502
rthumb -4.83394 -46.7008
lclavicle 2.45996e-014 -2.22639e-014
lhumerus -50.2947 -12.3664 85.5326
lradius 20.7829
lwrist -13.143
lhand -35.555 7.41539
lfingers 7.12502
lthumb -8.68034 37.2169
rfemur 30.5241 -13.8375 23.1943
rtibia 5.40694e-014
rfoot -14.1178 3.95079
rtoes -11.8047
lfemur -25.4345 10.3617 -9.80517
ltibia 34.6282
lfoot -30.5979 -16.4811
ltoes -11.201
287
root 3.16872 16.7486 13.3371 -8.1432 2.06025 -6.16498
lowerback 7.89748 6.07462 11.3027
upperback 2.03175 8.94522 -2.90409
thorax -0.0458808 4.60716 -9.93659
lowerneck -13.7822 -10.8261 -12.0074
upperneck 17.5286 -16.2932 17.8332
head 10.4501 -6.74662 5.88616
rclavicle 3.97569e-014 0
rhumerus -19.0698 13.5172 -93.535
rradius 41.3154
rwrist 25.4828
rhand -31.766 -16.4885
rfingers 7.12502
rthumb -5.02274 -46.409
lclavicle 3.97569e-014 0
lhumerus -50.4885 -19.3002 85.9463
lradius 21.4329
lwrist -11.5329
lhand -35.413 8.00446
lfingers 7.12502
lthumb -8.54337 37.8116
rfemur 30.9193 -13.6594 23.4169
rtibia -3.18055e-015
rfoot -14.7044 3.94221
rtoes -12.7703
lfemur -26.1349 10.6018 -9.8892
ltibia 34.5558
lfoot -30.984 -16.2915
ltoes -11.9839
288
root 3.18056 16.7152 13.5057 -7.97854 2.04363 -6.42124
lowerback 7.93463 6.16405 11.6739
upperback 1.81128 9.10632 -3.09252
thorax -0.168064 4.67519 -10.3698
lowerneck -13.4574 -10.9213 -12.1037
upperneck 17.4613 -16.522 18.2094
head 10.4548 -6.84482 6.00947
rclavicle -1.26179e-013 -1.11319e-014
rhumerus -19.1013 14.5467 -93.6808
rradius 41.946
rwrist 24.9051
rhand -31.5097 -16.5225
rfingers 7.12502
rthumb -4.77528 -46.4487
lclavicle -1.26179e-013 -1.11319e-014
lhumerus -50.678 -18.6919 84.9233
lradius 21.3075
lwrist -12.279
lhand -35.7661 8.00202
lfingers 7.12502
lthumb -8.88411 37.795
rfemur 31.4055 -13.5852 23.5113
rtibia 5.40694e-014
rfoot -15.2249 4.28882
rtoes -12.9981
lfemur -26.7608 10.9212 -10.0154
ltibia 34.5773
lfoot -31.1762 -16.603
ltoes -11.4714
289
root 3.18777 16.6768 13.6676 -7.88043 1.81475 -6.21174
lowerback 6.62588 5.02774 6.9191
upperback 2.22756 7.12351 -1.13632
thorax -0.392012 3.61839 -5.46161
lowerneck -15.0199 -9.32077 -11.7227
upperneck 18.6831 -13.8228 16.0749
head 10.4804 -5.66243 5.62942
rclavicle 5.80203e-014 -7.95139e-016
rhumerus -18.7686 22.4872 -93.4288
rradius 42.3096
rwrist 23.3846
rhand -31.4985 -16.1035
rfingers 7.12502
rthumb -4.76453 -46.03
lclavicle 5.80203e-014 -7.95139e-016
lhumerus -50.7212 -9.85482 82.7102
lradius 20.348
lwrist -14.7786
lhand -36.423 7.39864
lfingers 7.12502
lthumb -9.51799 37.1637
rfemur 31.9634 -13.2345 23.1389
rtibia -2.22639e-014
rfoot -15.6424 4.81414
rtoes -12.8124
lfemur -27.0136 10.8715 -10.3867
ltibia 34.4239
lfoot -31.2341 -16.6336
ltoes -11.4768
